HIERARCHY
ROOT Hips
{
 OFFSET 0.000000 0.000000 0.000000
 CHANNELS 6 Xposition Yposition Zposition Yrotation Xrotation Zrotation
 JOINT Chest
 {
  OFFSET 0.000000 10.383400 0.001500
  CHANNELS 3 Yrotation Xrotation Zrotation
  JOINT Chest2
  {
   OFFSET 0.000000 10.418200 -0.003100
   CHANNELS 3 Yrotation Xrotation Zrotation
   JOINT Chest3
   {
    OFFSET 0.000000 10.375100 0.000000
    CHANNELS 3 Yrotation Xrotation Zrotation
    JOINT Chest4
    {
     OFFSET 0.000000 10.364600 0.000000
     CHANNELS 3 Yrotation Xrotation Zrotation
     JOINT Neck
     {
      OFFSET 0.000000 15.642200 0.000000
      CHANNELS 3 Yrotation Xrotation Zrotation
      JOINT Head
      {
       OFFSET 0.000000 9.697300 -0.006500
       CHANNELS 3 Yrotation Xrotation Zrotation
       End Site
       {
        OFFSET 0.000000 18.492200 -0.003400
       }
      }
     }
     JOINT RightCollar
     {
      OFFSET -3.166800 10.349300 0.000000
      CHANNELS 3 Yrotation Xrotation Zrotation
      JOINT RightShoulder
      {
       OFFSET -14.729700 0.000000 0.000000
       CHANNELS 3 Yrotation Xrotation Zrotation
       JOINT RightElbow
       {
        OFFSET 0.000000 -32.224300 0.000000
        CHANNELS 3 Yrotation Xrotation Zrotation
        JOINT RightWrist
        {
         OFFSET 0.000000 -26.084100 0.000000
         CHANNELS 3 Yrotation Xrotation Zrotation
         End Site
         {
          OFFSET 0.000000 -19.319400 0.000000
         }
        }
       }
      }
     }
     JOINT LeftCollar
     {
      OFFSET 3.166800 10.349300 0.000000
      CHANNELS 3 Yrotation Xrotation Zrotation
      JOINT LeftShoulder
      {
       OFFSET 14.729700 0.000000 0.000000
       CHANNELS 3 Yrotation Xrotation Zrotation
       JOINT LeftElbow
       {
        OFFSET 0.000000 -32.224300 0.000000
        CHANNELS 3 Yrotation Xrotation Zrotation
        JOINT LeftWrist
        {
         OFFSET 0.000000 -26.084100 0.000000
         CHANNELS 3 Yrotation Xrotation Zrotation
         End Site
         {
          OFFSET 0.000000 -19.319400 0.000000
         }
        }
       }
      }
     }
    }
   }
  }
 }
 JOINT RightHip
 {
  OFFSET -8.428900 -0.007500 -0.000800
  CHANNELS 3 Yrotation Xrotation Zrotation
  JOINT RightKnee
  {
   OFFSET 0.000000 -43.834600 0.000700
   CHANNELS 3 Yrotation Xrotation Zrotation
   JOINT RightAnkle
   {
    OFFSET 0.000000 -42.757000 0.001200
    CHANNELS 3 Yrotation Xrotation Zrotation
    JOINT RightToe
    {
     OFFSET 0.000000 -6.946900 15.649300
     CHANNELS 3 Yrotation Xrotation Zrotation
     End Site
     {
      OFFSET 0.000000 -1.580800 6.825800
     }
    }
   }
  }
 }
 JOINT LeftHip
 {
  OFFSET 8.428900 -0.007500 -0.000800
  CHANNELS 3 Yrotation Xrotation Zrotation
  JOINT LeftKnee
  {
   OFFSET 0.000000 -43.834600 0.000700
   CHANNELS 3 Yrotation Xrotation Zrotation
   JOINT LeftAnkle
   {
    OFFSET 0.000000 -42.757000 0.001200
    CHANNELS 3 Yrotation Xrotation Zrotation
    JOINT LeftToe
    {
     OFFSET 0.000000 -6.946900 15.649300
     CHANNELS 3 Yrotation Xrotation Zrotation
     End Site
     {
      OFFSET 0.000000 -1.580800 6.825800
     }
    }
   }
  }
 }
}
MOTION
Frames: 16
Frame Time: 0.008333
0.000000 93.354300 0.000000 0.000000 -5.767883 0.000000 0.000000 11.653835 0.000000 0.000000 -5.885947 0.000000 0.000000 -0.000000 0.000000 0.000000 -0.000000 0.000000 0.000000 12.528835 0.000000 0.000000 0.711642 0.000000 0.000000 -0.000000 0.000000 0.000000 0.000000 -90.000000 0.000000 -2.309062 0.000000 0.000000 2.309062 0.000000 0.000000 -0.000000 0.000000 0.000000 -0.000000 90.000000 0.000000 -2.309062 0.000000 0.000000 2.309062 0.000000 0.000000 8.520418 0.000000 0.000000 1.905762 0.000000 -0.000000 -4.658285 0.000000 0.000000 -0.000000 0.000000 0.000000 8.520418 0.000000 0.000000 1.905762 0.000000 -0.000000 -4.658285 0.000000 0.000000 -0.000000 0.000000
126.105748 153.704935 21.690892 -14.816088 -25.531530 -0.659617 -0.570481 15.749133 1.457601 -0.050628 1.501751 0.203152 -0.108301 2.537352 0.336528 -0.341382 13.895828 1.836142 1.336383 14.034808 -1.001105 2.904157 -9.692464 -2.402751 -2.011516 -6.562047 -4.877192 8.384416 -14.307862 -7.024218 21.060194 -36.284014 3.792919 5.878572 -0.285735 -28.840463 -2.766365 -9.156822 -1.483670 -4.720123 -8.640594 6.601091 -27.900844 -43.015742 2.908952 -17.596713 5.424775 26.760581 -7.948154 -43.454916 0.049058 -24.061782 74.770389 -25.513780 3.362386 -5.182101 6.628021 0.294469 -0.713892 0.126672 -0.790881 -36.682348 -6.066773 -8.305444 71.148634 -4.521387 -15.775737 -8.311204 -6.106510 0.054915 0.156985 0.024423
126.096056 145.182416 21.655353 -14.862184 -25.462675 -0.852851 -0.479061 15.690217 1.674398 -0.050832 1.499805 0.205045 -0.104473 2.535453 0.335966 -0.371695 13.915369 1.827647 1.375978 14.019163 -0.995666 2.944094 -9.700320 -2.404872 -2.019817 -6.621129 -4.918534 8.494958 -14.367377 -6.965143 20.766104 -36.036071 3.869301 5.846438 -0.591780 -28.940264 -2.806285 -9.111456 -1.460020 -4.692025 -8.714117 6.568495 -27.719068 -42.968470 2.955109 -17.662540 5.471694 26.475453 -8.121665 -43.530479 0.361592 -24.138024 74.817711 -25.590774 3.459921 -5.461036 6.674568 0.167313 -0.469720 0.073978 -0.929978 -36.631329 -5.754963 -8.328773 70.980957 -4.526241 -15.739165 -8.228126 -6.139355 0.036633 0.109673 0.016282
126.087796 138.165801 21.630125 -14.877223 -25.428118 -1.018097 -0.430073 15.668624 1.845778 -0.057068 1.507524 0.202315 -0.091663 2.521127 0.340371 -0.400597 13.931681 1.817262 1.413288 14.004679 -0.990340 2.986396 -9.715674 -2.405121 -2.031238 -6.686030 -4.960666 8.576301 -14.430485 -6.853327 20.524426 -35.751828 3.895185 5.793619 -0.921865 -29.028378 -2.862309 -9.065334 -1.439987 -4.663530 -8.758289 6.533893 -27.605418 -42.970337 3.139806 -17.755094 5.590099 26.054667 -8.299415 -43.564135 0.634806 -24.205452 74.847904 -25.677600 3.513587 -5.694841 6.706190 0.083542 -0.258799 0.036984 -1.063645 -36.563801 -5.504075 -8.351283 70.837850 -4.527757 -15.708033 -8.157965 -6.172328 0.023224 0.069013 0.010318
126.085665 133.099139 21.615157 -14.863919 -25.412554 -1.123594 -0.421908 15.660325 1.945325 -0.052248 1.505366 0.203341 -0.130007 2.546447 0.331394 -0.386694 13.917432 1.816921 1.429705 14.002412 -0.979469 3.046452 -9.743752 -2.412460 -2.050048 -6.750092 -5.003706 8.669910 -14.498367 -6.709728 20.302854 -35.434356 3.867759 5.719500 -1.249353 -29.067910 -2.934983 -9.012075 -1.424873 -4.627865 -8.765421 6.486635 -27.579599 -43.032933 3.480935 -17.862067 5.777683 25.529489 -8.419794 -43.583326 0.792129 -24.248680 74.872933 -25.729589 3.533858 -5.836662 6.719508 0.041099 -0.130633 0.018216 -1.195873 -36.506497 -5.317644 -8.377858 70.721020 -4.578187 -15.710032 -8.089370 -6.186540 0.013269 0.037773 0.005893
126.084724 129.900189 21.608407 -14.856947 -25.413339 -1.185017 -0.422277 15.666442 2.000931 -0.064551 1.511638 0.200489 -0.139630 2.550568 0.331129 -0.364709 13.908133 1.817123 1.422946 14.005626 -0.971708 3.119984 -9.766110 -2.418581 -2.089978 -6.806612 -5.045884 8.774646 -14.566511 -6.548244 20.105850 -35.096788 3.791191 5.617888 -1.559631 -29.047692 -3.036608 -8.938748 -1.413713 -4.571507 -8.742565 6.425967 -27.600315 -43.141528 3.914397 -17.952656 6.004009 24.962861 -8.486242 -43.584754 0.882545 -24.275908 74.888505 -25.759247 3.539832 -5.919999 6.723974 0.020582 -0.055514 0.009129 -1.261737 -36.454769 -5.212979 -8.400253 70.642969 -4.599690 -15.714379 -8.044754 -6.200476 0.004770 0.016743 0.002118
126.084965 128.140526 21.604731 -14.846436 -25.406369 -1.219686 -0.450904 15.669059 2.021685 -0.089846 1.527487 0.195860 -0.104646 2.534909 0.335288 -0.405465 13.919668 1.806796 1.453338 13.999238 -0.966058 3.198824 -9.789404 -2.426991 -2.086708 -6.873830 -5.088981 8.873891 -14.637474 -6.382910 19.934884 -34.751419 3.684096 5.483844 -1.852739 -28.960140 -3.104393 -8.866057 -1.412801 -4.478360 -8.699876 6.357716 -27.590923 -43.265318 4.346317 -17.995893 6.219372 24.413125 -8.521497 -43.594660 0.926922 -24.300401 74.898262 -25.778475 3.543197 -5.961521 6.724211 0.010100 -0.018347 0.004482 -1.307329 -36.433671 -5.148662 -8.426448 70.596017 -4.629740 -15.719295 -8.015947 -6.208182 -0.000563 0.005220 -0.000250
126.086604 127.302108 21.602726 -14.836772 -25.391116 -1.233410 -0.520710 15.693839 2.004946 -0.034708 1.494592 0.204230 -0.115048 2.540379 0.333788 -0.516620 13.957960 1.786632 1.543414 13.970428 -0.969070 3.281616 -9.810866 -2.437888 -2.017026 -6.957772 -5.138712 8.953573 -14.722411 -6.229451 19.767753 -34.401563 3.577354 5.318210 -2.134177 -28.781895 -3.109112 -8.810188 -1.426246 -4.340200 -8.654447 6.279310 -27.478533 -43.361130 4.694521 -17.957708 6.362138 23.934002 -8.534865 -43.612986 0.939617 -24.315910 74.903285 -25.788060 3.542509 -5.969071 6.723126 0.009401 -0.011710 0.004172 -1.350322 -36.442006 -5.097777 -8.433703 70.578663 -4.669216 -15.716330 -7.998929 -6.204546 0.000021 0.002042 0.000009
126.087524 126.959487 21.603054 -14.834115 -25.381976 -1.239463 -0.560661 15.708049 1.994377 -0.034994 1.493319 0.204612 -0.121280 2.543604 0.332853 -0.576786 13.977346 1.772144 1.605545 13.947987 -0.971568 3.361888 -9.834809 -2.452790 -1.974484 -7.011991 -5.190154 9.009384 -14.834803 -6.101601 19.559959 -34.042962 3.506132 5.131971 -2.420036 -28.486929 -3.137961 -8.739284 -1.441183 -4.161443 -8.625200 6.187965 -27.181756 -43.401503 4.870182 -17.816025 6.399184 23.556405 -8.540670 -43.623518 0.946071 -24.328754 74.903378 -25.798122 3.542015 -5.970005 6.724997 0.009823 -0.009136 0.004360 -1.389293 -36.450973 -5.042612 -8.477432 70.567129 -4.747065 -15.748341 -7.985873 -6.198036 -0.001108 0.000930 -0.000492
126.088880 126.840961 21.605023 -14.833594 -25.377794 -1.238225 -0.601543 15.727975 1.975878 -0.037522 1.495816 0.204732 -0.167372 2.567947 0.327511 -0.575130 13.965378 1.764944 1.648488 13.929544 -0.974082 3.445364 -9.858377 -2.470781 -1.951779 -7.025901 -5.247909 9.038819 -14.980633 -6.003974 19.263080 -33.675849 3.502804 4.954432 -2.729349 -28.057026 -3.178838 -8.661749 -1.456057 -3.956716 -8.614683 6.095764 -26.617177 -43.393918 4.801136 -17.590971 6.337365 23.231486 -8.528821 -43.632761 0.928588 -24.337136 74.907920 -25.799417 3.548067 -5.967016 6.734675 0.004672 -0.011118 0.002073 -1.413059 -36.453905 -5.003425 -8.511221 70.560254 -4.818038 -15.744346 -7.979084 -6.191407 0.001125 0.000760 0.000500
126.090158 126.806341 21.605680 -14.834612 -25.365023 -1.238594 -0.638994 15.738396 1.960088 -0.045522 1.498712 0.205031 -0.134417 2.550356 0.331109 -0.649860 13.994578 1.751498 1.690021 13.907740 -0.978761 3.565722 -9.916417 -2.502466 -1.935692 -7.011793 -5.314687 9.037418 -15.151220 -5.930394 18.830095 -33.297461 3.599063 4.821232 -3.081372 -27.484939 -3.153613 -8.641490 -1.466504 -3.790900 -8.566215 6.006097 -25.748079 -43.364428 4.466040 -17.332120 6.213350 22.863243 -8.517317 -43.648901 0.917704 -24.359024 74.903725 -25.817966 3.560463 -5.960369 6.747268 -0.001137 -0.012799 -0.000505 -1.418539 -36.468941 -4.980712 -8.538019 70.556185 -4.852640 -15.767543 -7.966757 -6.200943 -0.002079 0.001721 -0.000923
126.090797 126.798438 21.606459 -14.824609 -25.354596 -1.247672 -0.675387 15.744801 1.953538 -0.057223 1.508125 0.200535 -0.141254 2.554526 0.330186 -0.689587 13.996370 1.747331 1.732289 13.883605 -0.986686 3.649292 -9.959272 -2.534726 -1.924922 -6.975495 -5.394251 8.992168 -15.331897 -5.868401 18.200459 -32.897810 3.838025 4.736683 -3.504649 -26.754783 -3.200750 -8.559342 -1.486040 -3.529622 -8.589510 5.972958 -24.601897 -43.338991 3.876389 -17.058184 6.104734 22.404691 -8.521265 -43.656656 0.913554 -24.313821 74.903341 -25.769870 3.555219 -5.957421 6.753364 -0.004056 -0.011740 -0.001800 -1.448501 -36.483529 -4.947642 -8.572317 70.554580 -4.905561 -15.770805 -7.959964 -6.203029 -0.003304 0.001635 -0.001467
126.091542 126.797150 21.606740 -14.818215 -25.342967 -1.256389 -0.722039 15.746468 1.947011 -0.058421 1.518218 0.197644 -0.201439 2.570706 0.330235 -0.677273 13.980735 1.741063 1.796202 13.864219 -1.001839 3.720285 -10.015794 -2.566851 -1.910583 -6.920772 -5.488950 8.889350 -15.508519 -5.806889 17.301042 -32.471932 4.259211 4.652914 -4.034908 -25.839249 -3.233748 -8.481079 -1.510408 -3.237173 -8.608710 5.969900 -23.201715 -43.327671 3.044680 -16.740971 6.048280 21.850528 -8.506403 -43.665134 0.907836 -24.311275 74.899040 -25.753559 3.545049 -5.956374 6.758102 -0.001575 -0.008747 -0.000699 -1.482618 -36.501384 -4.922172 -8.567928 70.559444 -4.923242 -15.733904 -7.952043 -6.214070 -0.002966 0.001159 -0.001317
126.092994 126.797941 21.608651 -14.816987 -25.342213 -1.258106 -0.777009 15.758275 1.931809 -0.075317 1.523374 0.198411 -0.184624 2.566398 0.329100 -0.713785 13.984341 1.738536 1.858102 13.848910 -1.020262 3.797760 -10.095954 -2.604108 -1.890359 -6.858250 -5.589628 8.729902 -15.668566 -5.743401 16.083202 -32.024902 4.862405 4.502334 -4.680733 -24.716877 -3.191227 -8.458197 -1.535073 -2.966610 -8.567614 5.973621 -21.513364 -43.321461 1.965805 -16.352775 6.014821 21.180012 -8.503891 -43.665648 0.906694 -24.277147 74.899115 -25.724170 3.534729 -5.953394 6.765177 -0.001320 -0.007890 -0.000586 -1.544295 -36.509382 -4.884197 -8.524328 70.561208 -4.926395 -15.710389 -7.944175 -6.225915 -0.002075 -0.000476 -0.000921
126.092793 126.798180 21.608331 -14.813047 -25.333280 -1.274469 -0.820606 15.759527 1.933230 -0.055386 1.520061 0.198103 -0.200727 2.568689 0.331199 -0.759992 13.993169 1.738406 1.877843 13.785628 -1.027731 3.920237 -10.160761 -2.664559 -1.861726 -6.800994 -5.682632 8.522800 -15.805489 -5.681475 14.533797 -31.566438 5.618070 4.236434 -5.417756 -23.364048 -3.152177 -8.441050 -1.563678 -2.647729 -8.518893 6.003344 -19.486019 -43.294103 0.620048 -15.866980 5.968387 20.362587 -8.490356 -43.671924 0.916873 -24.206058 74.896180 -25.656965 3.514299 -5.936147 6.792077 -0.003773 -0.007337 -0.001675 -1.581153 -36.522908 -4.852717 -8.543219 70.561847 -4.953420 -15.688408 -7.942900 -6.237802 -0.002051 0.000140 -0.000910
126.092565 126.798481 21.608338 -14.819646 -25.328487 -1.287691 -0.855686 15.766867 1.936071 -0.105306 1.531613 0.198317 -0.160040 2.563747 0.331053 -0.790623 14.002015 1.737834 1.946587 13.754489 -1.049408 3.991602 -10.303112 -2.708436 -1.816343 -6.759155 -5.757625 8.278026 -15.916420 -5.630008 12.640651 -31.100222 6.511338 3.814656 -6.238159 -21.771243 -3.237776 -8.387447 -1.616512 -2.172695 -8.514688 6.102955 -17.067863 -43.205737 -1.022087 -15.228501 5.878311 19.369948 -8.398128 -43.673817 0.890347 -24.284909 74.882859 -25.680604 3.491285 -5.927863 6.804183 0.003883 -0.005795 0.001723 -1.633312 -36.533264 -4.807476 -8.535590 70.562065 -4.972848 -15.667690 -7.941314 -6.249260 -0.001474 0.000306 -0.000654
